<?xml version="1.0" encoding="UTF-8" standalone="no"?>
<!-- Created with Inkscape (http://www.inkscape.org/) -->

<svg
   width="135.46666mm"
   height="135.46666mm"
   viewBox="0 0 135.46666 135.46666"
   version="1.1"
   id="svg1"
   xmlns="http://www.w3.org/2000/svg"
   xmlns:svg="http://www.w3.org/2000/svg">
  <defs
     id="defs1" />
  <g
     id="layer1"
     style="display:none">
    <path
       style="fill:none;stroke:#000000;stroke-width:0.05;stroke-dasharray:none;stroke-opacity:1"
       d="M 0,15 H 135.46666"
       id="path2" />
    <path
       style="fill:none;stroke:#000000;stroke-width:0.05;stroke-dasharray:none;stroke-opacity:1"
       d="M 0,30 H 135.46666"
       id="path3" />
    <path
       style="fill:none;stroke:#000000;stroke-width:0.05;stroke-dasharray:none;stroke-opacity:1"
       d="M 0,44.999999 H 135.46666"
       id="path4" />
    <path
       style="fill:none;stroke:#000000;stroke-width:0.05;stroke-dasharray:none;stroke-opacity:1"
       d="M 0,59.999999 H 135.46666"
       id="path2-8" />
    <path
       style="fill:none;stroke:#000000;stroke-width:0.05;stroke-dasharray:none;stroke-opacity:1"
       d="M 0,74.999999 H 135.46666"
       id="path3-8" />
    <path
       style="fill:none;stroke:#000000;stroke-width:0.05;stroke-dasharray:none;stroke-opacity:1"
       d="M 0,89.999998 H 135.46666"
       id="path4-2" />
    <path
       style="fill:none;stroke:#000000;stroke-width:0.05;stroke-dasharray:none;stroke-opacity:1"
       d="M 0,105 H 135.46666"
       id="path2-8-1" />
    <path
       style="fill:none;stroke:#000000;stroke-width:0.05;stroke-dasharray:none;stroke-opacity:1"
       d="M 0,120 H 135.46666"
       id="path3-8-7" />
    <path
       style="fill:none;stroke:#000000;stroke-width:0.05;stroke-dasharray:none;stroke-opacity:1"
       d="M 0,7.5124998 H 135.46666"
       id="path2-2" />
    <path
       style="fill:none;stroke:#000000;stroke-width:0.05;stroke-dasharray:none;stroke-opacity:1"
       d="M 0,22.512499 H 135.46666"
       id="path3-60" />
    <path
       style="fill:none;stroke:#000000;stroke-width:0.05;stroke-dasharray:none;stroke-opacity:1"
       d="M 0,37.512498 H 135.46666"
       id="path4-16" />
    <path
       style="fill:none;stroke:#000000;stroke-width:0.05;stroke-dasharray:none;stroke-opacity:1"
       d="M 0,52.512498 H 135.46666"
       id="path2-8-5" />
    <path
       style="fill:none;stroke:#000000;stroke-width:0.05;stroke-dasharray:none;stroke-opacity:1"
       d="M 0,67.512498 H 135.46666"
       id="path3-8-75" />
    <path
       style="fill:none;stroke:#000000;stroke-width:0.05;stroke-dasharray:none;stroke-opacity:1"
       d="M 0,82.512497 H 135.46666"
       id="path4-2-4" />
    <path
       style="fill:none;stroke:#000000;stroke-width:0.05;stroke-dasharray:none;stroke-opacity:1"
       d="M 0,97.512499 H 135.46666"
       id="path2-8-1-1" />
    <path
       style="fill:none;stroke:#000000;stroke-width:0.05;stroke-dasharray:none;stroke-opacity:1"
       d="M 0,112.5125 H 135.46666"
       id="path3-8-7-20" />
    <path
       style="fill:none;stroke:#000000;stroke-width:0.05;stroke-dasharray:none;stroke-opacity:1"
       d="M 0,127.48747 H 135.46666"
       id="path3-8-7-20-6" />
    <path
       style="fill:none;stroke:#000000;stroke-width:0.05;stroke-dasharray:none;stroke-opacity:1"
       d="M 120,0 V 135.46666"
       id="path2-7" />
    <path
       style="fill:none;stroke:#000000;stroke-width:0.05;stroke-dasharray:none;stroke-opacity:1"
       d="M 105,0 V 135.46666"
       id="path3-6" />
    <path
       style="fill:none;stroke:#000000;stroke-width:0.05;stroke-dasharray:none;stroke-opacity:1"
       d="M 90.000001,0 V 135.46666"
       id="path4-1" />
    <path
       style="fill:none;stroke:#000000;stroke-width:0.05;stroke-dasharray:none;stroke-opacity:1"
       d="M 75.000001,0 V 135.46666"
       id="path2-8-4" />
    <path
       style="fill:none;stroke:#000000;stroke-width:0.05;stroke-dasharray:none;stroke-opacity:1"
       d="M 60.000001,0 V 135.46666"
       id="path3-8-2" />
    <path
       style="fill:none;stroke:#000000;stroke-width:0.05;stroke-dasharray:none;stroke-opacity:1"
       d="M 45.000002,0 V 135.46666"
       id="path4-2-3" />
    <path
       style="fill:none;stroke:#000000;stroke-width:0.05;stroke-dasharray:none;stroke-opacity:1"
       d="M 30,0 V 135.46666"
       id="path2-8-1-2" />
    <path
       style="fill:none;stroke:#000000;stroke-width:0.05;stroke-dasharray:none;stroke-opacity:1"
       d="M 15,0 V 135.46666"
       id="path3-8-7-2" />
    <path
       style="fill:none;stroke:#000000;stroke-width:0.05;stroke-dasharray:none;stroke-opacity:1"
       d="M 112.5,-1.3964081e-6 V 135.46666"
       id="path2-7-4" />
    <path
       style="fill:none;stroke:#000000;stroke-width:0.05;stroke-dasharray:none;stroke-opacity:1"
       d="M 127.575,-1.7618774e-6 V 135.46666"
       id="path2-7-4-9" />
    <path
       style="fill:none;stroke:#000000;stroke-width:0.05;stroke-dasharray:none;stroke-opacity:1"
       d="M 97.5,-1.3964081e-6 V 135.46666"
       id="path3-6-0" />
    <path
       style="fill:none;stroke:#000000;stroke-width:0.05;stroke-dasharray:none;stroke-opacity:1"
       d="M 82.500001,-1.3964081e-6 V 135.46666"
       id="path4-1-7" />
    <path
       style="fill:none;stroke:#000000;stroke-width:0.05;stroke-dasharray:none;stroke-opacity:1"
       d="M 67.500001,-1.3964081e-6 V 135.46666"
       id="path2-8-4-6" />
    <path
       style="fill:none;stroke:#000000;stroke-width:0.05;stroke-dasharray:none;stroke-opacity:1"
       d="M 52.500001,-1.3964081e-6 V 135.46666"
       id="path3-8-2-3" />
    <path
       style="fill:none;stroke:#000000;stroke-width:0.05;stroke-dasharray:none;stroke-opacity:1"
       d="M 37.500002,-1.3964081e-6 V 135.46666"
       id="path4-2-3-6" />
    <path
       style="fill:none;stroke:#000000;stroke-width:0.05;stroke-dasharray:none;stroke-opacity:1"
       d="M 22.5,-1.3964081e-6 V 135.46666"
       id="path2-8-1-2-1" />
    <path
       style="fill:none;stroke:#000000;stroke-width:0.05;stroke-dasharray:none;stroke-opacity:1"
       d="M 7.5,-1.3964081e-6 V 135.46666"
       id="path3-8-7-2-5" />
  </g>
  <g
     id="g56"
     style="display:none">
    <path
       style="fill:none;stroke:#000000;stroke-width:0.05;stroke-dasharray:none;stroke-opacity:1"
       d="M 0,15 H 135.46666"
       id="path23" />
    <path
       style="fill:none;stroke:#000000;stroke-width:0.05;stroke-dasharray:none;stroke-opacity:1"
       d="M 0,30 H 135.46666"
       id="path24" />
    <path
       style="fill:none;stroke:#000000;stroke-width:0.05;stroke-dasharray:none;stroke-opacity:1"
       d="M 0,44.999999 H 135.46666"
       id="path25" />
    <path
       style="fill:none;stroke:#000000;stroke-width:0.05;stroke-dasharray:none;stroke-opacity:1"
       d="M 0,59.999999 H 135.46666"
       id="path26" />
    <path
       style="fill:none;stroke:#000000;stroke-width:0.05;stroke-dasharray:none;stroke-opacity:1"
       d="M 0,74.999999 H 135.46666"
       id="path27" />
    <path
       style="fill:none;stroke:#000000;stroke-width:0.05;stroke-dasharray:none;stroke-opacity:1"
       d="M 0,89.999998 H 135.46666"
       id="path28" />
    <path
       style="fill:none;stroke:#000000;stroke-width:0.05;stroke-dasharray:none;stroke-opacity:1"
       d="M 0,105 H 135.46666"
       id="path29" />
    <path
       style="fill:none;stroke:#000000;stroke-width:0.05;stroke-dasharray:none;stroke-opacity:1"
       d="M 0,120 H 135.46666"
       id="path30" />
    <path
       style="fill:none;stroke:#000000;stroke-width:0.05;stroke-dasharray:none;stroke-opacity:1"
       d="M 0,7.5124998 H 135.46666"
       id="path31" />
    <path
       style="fill:none;stroke:#000000;stroke-width:0.05;stroke-dasharray:none;stroke-opacity:1"
       d="M 0,22.512499 H 135.46666"
       id="path32" />
    <path
       style="fill:none;stroke:#000000;stroke-width:0.05;stroke-dasharray:none;stroke-opacity:1"
       d="M 0,37.512498 H 135.46666"
       id="path33" />
    <path
       style="fill:none;stroke:#000000;stroke-width:0.05;stroke-dasharray:none;stroke-opacity:1"
       d="M 0,52.512498 H 135.46666"
       id="path34" />
    <path
       style="fill:none;stroke:#000000;stroke-width:0.05;stroke-dasharray:none;stroke-opacity:1"
       d="M 0,67.512498 H 135.46666"
       id="path35" />
    <path
       style="fill:none;stroke:#000000;stroke-width:0.05;stroke-dasharray:none;stroke-opacity:1"
       d="M 0,82.512497 H 135.46666"
       id="path36" />
    <path
       style="fill:none;stroke:#000000;stroke-width:0.05;stroke-dasharray:none;stroke-opacity:1"
       d="M 0,97.512499 H 135.46666"
       id="path37" />
    <path
       style="fill:none;stroke:#000000;stroke-width:0.05;stroke-dasharray:none;stroke-opacity:1"
       d="M 0,112.5125 H 135.46666"
       id="path38" />
    <path
       style="fill:none;stroke:#000000;stroke-width:0.05;stroke-dasharray:none;stroke-opacity:1"
       d="M 0,127.48747 H 135.46666"
       id="path39" />
    <path
       style="fill:none;stroke:#000000;stroke-width:0.05;stroke-dasharray:none;stroke-opacity:1"
       d="M 120,0 V 135.46666"
       id="path40" />
    <path
       style="fill:none;stroke:#000000;stroke-width:0.05;stroke-dasharray:none;stroke-opacity:1"
       d="M 105,0 V 135.46666"
       id="path41" />
    <path
       style="fill:none;stroke:#000000;stroke-width:0.05;stroke-dasharray:none;stroke-opacity:1"
       d="M 90.000001,0 V 135.46666"
       id="path42" />
    <path
       style="fill:none;stroke:#000000;stroke-width:0.05;stroke-dasharray:none;stroke-opacity:1"
       d="M 75.000001,0 V 135.46666"
       id="path43" />
    <path
       style="fill:none;stroke:#000000;stroke-width:0.05;stroke-dasharray:none;stroke-opacity:1"
       d="M 60.000001,0 V 135.46666"
       id="path44" />
    <path
       style="fill:none;stroke:#000000;stroke-width:0.05;stroke-dasharray:none;stroke-opacity:1"
       d="M 45.000002,0 V 135.46666"
       id="path45" />
    <path
       style="fill:none;stroke:#000000;stroke-width:0.05;stroke-dasharray:none;stroke-opacity:1"
       d="M 30,0 V 135.46666"
       id="path46" />
    <path
       style="fill:none;stroke:#000000;stroke-width:0.05;stroke-dasharray:none;stroke-opacity:1"
       d="M 15,0 V 135.46666"
       id="path47" />
    <path
       style="fill:none;stroke:#000000;stroke-width:0.05;stroke-dasharray:none;stroke-opacity:1"
       d="M 112.5,-1.3964081e-6 V 135.46666"
       id="path48" />
    <path
       style="fill:none;stroke:#000000;stroke-width:0.05;stroke-dasharray:none;stroke-opacity:1"
       d="M 127.575,-1.7618774e-6 V 135.46666"
       id="path49" />
    <path
       style="fill:none;stroke:#000000;stroke-width:0.05;stroke-dasharray:none;stroke-opacity:1"
       d="M 97.5,-1.3964081e-6 V 135.46666"
       id="path50" />
    <path
       style="fill:none;stroke:#000000;stroke-width:0.05;stroke-dasharray:none;stroke-opacity:1"
       d="M 82.500001,-1.3964081e-6 V 135.46666"
       id="path51" />
    <path
       style="fill:none;stroke:#000000;stroke-width:0.05;stroke-dasharray:none;stroke-opacity:1"
       d="M 67.500001,-1.3964081e-6 V 135.46666"
       id="path52" />
    <path
       style="fill:none;stroke:#000000;stroke-width:0.05;stroke-dasharray:none;stroke-opacity:1"
       d="M 52.500001,-1.3964081e-6 V 135.46666"
       id="path53" />
    <path
       style="fill:none;stroke:#000000;stroke-width:0.05;stroke-dasharray:none;stroke-opacity:1"
       d="M 37.500002,-1.3964081e-6 V 135.46666"
       id="path54" />
    <path
       style="fill:none;stroke:#000000;stroke-width:0.05;stroke-dasharray:none;stroke-opacity:1"
       d="M 22.5,-1.3964081e-6 V 135.46666"
       id="path55" />
    <path
       style="fill:none;stroke:#000000;stroke-width:0.05;stroke-dasharray:none;stroke-opacity:1"
       d="M 7.5,-1.3964081e-6 V 135.46666"
       id="path56" />
  </g>
  <g
     id="layer2">
    <path
       d="m 115.75028,75.02311 c -4.2587,0.0078 -8.14879,2.418332 -10.05314,6.229594 l -0.0238,-0.01189 -2.51561,5.030183 -5.63273,11.266502 c 7.475,0.0021 12.10573,0 18.22817,0 4.11562,-0.0203 7.88951,-2.262395 9.84764,-5.884369 0.90953,-1.641608 1.39482,-3.484534 1.4118,-5.36143 2e-5,-6.223426 -5.04231,-11.268529 -11.26236,-11.268563 z"
       style="fill:#ffffff;stroke:none;stroke-width:0.05"
       id="path78" />
    <path
       d="m 93.168851,30.025303 c -4.22871,0.05813 -8.06841,2.479026 -9.94202,6.268351 l -0.005,0.01034 -22.60224,44.94558 -1.43609,2.871659 -1.0759,2.151806 -0.004,0.0083 -4.96869,9.935827 -0.65991,1.320333 h 6.93136 11.26288 c 0.0138,-0.0022 0.0276,-0.0045 0.0413,-0.0067 4.21137,-0.0726 8.0286,-2.498071 9.8888,-6.283337 10.06342,-19.957786 20.113249,-39.922276 30.110829,-59.913091 l 0.65423,-1.308964 h -6.93291 -11.254109 v 5.17e-4 z"
       style="fill:#ffffff;stroke:none;stroke-width:0.05"
       id="path77-7" />
    <path
       d="m 48.169155,30.025303 c -4.22871,0.05813 -8.068415,2.479026 -9.942029,6.268351 l -0.0052,0.01034 -22.602238,44.94558 -1.436088,2.871659 -1.075903,2.151806 -0.0041,0.0083 L 8.134908,96.217166 7.475,97.537499 h 6.93136 11.262878 c 0.01379,-0.0022 0.02756,-0.0045 0.04134,-0.0067 4.211369,-0.0726 8.028604,-2.498071 9.888802,-6.283337 C 45.662799,71.289676 55.712621,51.325186 65.710205,31.334371 l 0.654223,-1.308964 h -6.93291 -11.254093 v 5.17e-4 z"
       style="fill:#ffffff;stroke:none;stroke-width:0.05"
       id="path77" />
  </g>
</svg>
